<svg xmlns="http://www.w3.org/2000/svg" viewBox="0 0 1000 560" width="1000" height="560" xmlns:c2pa="http://c2pa.org/manifest"><metadata><c2pa:manifest>AAAWgmp1bWIAAAAeanVtZGMycGEAEQAQgAAAqgA4m3EDYzJwYQAAABZcanVtYgAAAEdqdW1kYzJtYQARABCAAACqADibcQN1cm46YzJwYTo2NzE5OGIzYy0wNGVmLTQ3MWUtODY4MC02NWI3OWQ4ZjYwMTAAAAADl2p1bWIAAAApanVtZGMyYXMAEQAQgAAAqgA4m3EDYzJwYS5hc3NlcnRpb25zAAAAALxqdW1iAAAARGp1bWRjYm9yABEAEIAAAKoAOJtxE2MycGEuaW5ncmVkaWVudC52MwAAAAAYYzJzaMzJm2cwE1bjZE4qyHlWh2UAAABwY2JvcqNpZGM6Zm9ybWF0bWltYWdlL3N2Zyt4bWxqaW5zdGFuY2VJRHgseG1wOmlpZDo4NTc0ZWEzYS03ZTkyLTQ4MTEtYmNhMi1mYjg3NzZiYTZlNGRscmVsYXRpb25zaGlwaHBhcmVudE9mAAAB4mp1bWIAAABBanVtZGNib3IAEQAQgAAAqgA4m3ETYzJwYS5hY3Rpb25zLnYyAAAAABhjMnNoa4oRDkD0ZjSFMDPKvRmMjwAAAZljYm9yomdhY3Rpb25zgqJmYWN0aW9ua2MycGEub3BlbmVkanBhcmFtZXRlcnOha2luZ3JlZGllbnRzgaJjdXJseC1zZWxmI2p1bWJmPWMycGEuYXNzZXJ0aW9ucy9jMnBhLmluZ3JlZGllbnQudjNkaGFzaFggjaJoid4NDNOTlCEhF9y756mS7hkvS3D2XUcJjL5iOC6kZmFjdGlvbngdY29tLmFudGhyb3BpYy5jbGF1ZGUucHJvdmlkZWRqcGFyYW1ldGVyc6F4H2NvbS5hbnRocm9waWMub3JpZ2luLWNvbmZpZGVuY2VndW5rbm93bmtkZXNjcmlwdGlvbnhmQ2xhdWRlIHByb3ZpZGVkIHRoaXMgZmlsZSBhdCB0aGUgcmVxdWVzdCBvZiBhIHVzZXIgYW5kIG1heSBoYXZlIGNyZWF0ZWQgb3IgbW9kaWZpZWQgdGhlIGZpbGUgY29udGVudHMubXNvZnR3YXJlQWdlbnShZG5hbWVmQ2xhdWRlcmFsbEFjdGlvbnNJbmNsdWRlZPUAAADIanVtYgAAAEBqdW1kY2JvcgARABCAAACqADibcRNjMnBhLmhhc2guZGF0YQAAAAAYYzJzaDuNAvFhamgo0lvJTRjp/jgAAACAY2JvcqVjYWxnZnNoYTI1NmNwYWRNAAAAAAAAAAAAAAAAAGRoYXNoWCC0iRmHKN9Mqg8gEEnoKzMoBdu3ijLuBry2Z1Rry1/0sGRuYW1lbmp1bWJmIG1hbmlmZXN0amV4Y2x1c2lvbnOBomVzdGFydBiYZmxlbmd0aBkeBAAAAj5qdW1iAAAAJ2p1bWRjMmNsABEAEIAAAKoAOJtxA2MycGEuY2xhaW0udjIAAAACD2Nib3KlY2FsZ2ZzaGEyNTZpc2lnbmF0dXJleE1zZWxmI2p1bWJmPS9jMnBhL3VybjpjMnBhOjY3MTk4YjNjLTA0ZWYtNDcxZS04NjgwLTY1Yjc5ZDhmNjAxMC9jMnBhLnNpZ25hdHVyZWppbnN0YW5jZUlEeCx4bXA6aWlkOmZjNDE5M2IxLWVmZjAtNDA3MC04NjY1LTdkOGNjZDJkYmI2NXJjcmVhdGVkX2Fzc2VydGlvbnODomN1cmx4LXNlbGYjanVtYmY9YzJwYS5hc3NlcnRpb25zL2MycGEuaW5ncmVkaWVudC52M2RoYXNoWCCNomiJ3g0M05OUISEX3LvnqZLuGS9LcPZdRwmMvmI4LqJjdXJseCpzZWxmI2p1bWJmPWMycGEuYXNzZXJ0aW9ucy9jMnBhLmFjdGlvbnMudjJkaGFzaFggSL4GMfg6Ok6fX6pvLhOuxbUEt80ITyhfaFX4M/0lv2uiY3VybHgpc2VsZiNqdW1iZj1jMnBhLmFzc2VydGlvbnMvYzJwYS5oYXNoLmRhdGFkaGFzaFggE2zmBby61i2tSOyHaid8jya3vzHETAIn39+n4TiwohN0Y2xhaW1fZ2VuZXJhdG9yX2luZm+jZG5hbWVvQW50aHJvcGljIEZpbGVzZ3ZlcnNpb25lMS4wLjBrc3BlY1ZlcnNpb25lMi40LjAAABA4anVtYgAAAChqdW1kYzJjcwARABCAAACqADibcQNjMnBhLnNpZ25hdHVyZQAAABAIY2JvctKEWQISogEmGCFZAgowggIGMIIBjaADAgECAhRA5aAK7sI50L64g/oGQgU9Z1UTADAKBggqhkjOPQQDAzBJMRcwFQYDVQQKEw5BbnRocm9waWMsIFBCQzEuMCwGA1UEAxMlQW50aHJvcGljIENvbnRlbnQgQ3JlZGVudGlhbHMgUm9vdCBDQTAeFw0yNjA4MDcxODQzNTZaFw0yODA4MDYxOTQzNTZaMEQxFzAVBgNVBAoTDkFudGhyb3BpYywgUEJDMSkwJwYDVQQDEyBBbnRocm9waWMgQ2xhdWRlIENvbnRlbnQgU2lnbmluZzBZMBMGByqGSM49AgEGCCqGSM49AwEHA0IABJh6CmvLUBgFFNU0vUKlOVtE6djd17L5SuwX0LemFisBM3dkd/3cyjxFA3Qo5S46fX0/ihY0VZ7mfb9KF703t5OjWDBWMA4GA1UdDwEB/wQEAwIHgDAVBgNVHSUEDjAMBgorBgEEAYPoXgIBMAwGA1UdEwEB/wQCMAAwHwYDVR0jBBgwFoAUzlHiBIFOZFsj+OPEz5o+nMHXXMIwCgYIKoZIzj0EAwMDZwAwZAIwMXMdFJ4BetLLVY7ORuE9noqbbAZOZn/aArXyTwFAZfKrPzxF2vPoJNf1+UCdg1XGAjBwX1zd9WGqYkqmL5SFqw1QySjr1zJfpJM9+1rdDwSPLMOPOjKuiXjoU/pUUeG9RwmhY3BhZFkNngAAAAAAAAAAAAAAAAAAAAAAAAAAAAAAAAAAAAAAAAAAAAAAAAAAAAAAAAAAAAAAAAAAAAAAAAAAAAAAAAAAAAAAAAAAAAAAAAAAAAAAAAAAAAAAAAAAAAAAAAAAAAAAAAAAAAAAAAAAAAAAAAAAAAAAAAAAAAAAAAAAAAAAAAAAAAAAAAAAAAAAAAAAAAAAAAAAAAAAAAAAAAAAAAAAAAAAAAAAAAAAAAAAAAAAAAAAAAAAAAAAAAAAAAAAAAAAAAAAAAAAAAAAAAAAAAAAAAAAAAAAAAAAAAAAAAAAAAAAAAAAAAAAAAAAAAAAAAAAAAAAAAAAAAAAAAAAAAAAAAAAAAAAAAAAAAAAAAAAAAAAAAAAAAAAAAAAAAAAAAAAAAAAAAAAAAAAAAAAAAAAAAAAAAAAAAAAAAAAAAAAAAAAAAAAAAAAAAAAAAAAAAAAAAAAAAAAAAAAAAAAAAAAAAAAAAAAAAAAAAAAAAAAAAAAAAAAAAAAAAAAAAAAAAAAAAAAAAAAAAAAAAAAAAAAAAAAAAAAAAAAAAAAAAAAAAAAAAAAAAAAAAAAAAAAAAAAAAAAAAAAAAAAAAAAAAAAAAAAAAAAAAAAAAAAAAAAAAAAAAAAAAAAAAAAAAAAAAAAAAAAAAAAAAAAAAAAAAAAAAAAAAAAAAAAAAAAAAAAAAAAAAAAAAAAAAAAAAAAAAAAAAAAAAAAAAAAAAAAAAAAAAAAAAAAAAAAAAAAAAAAAAAAAAAAAAAAAAAAAAAAAAAAAAAAAAAAAAAAAAAAAAAAAAAAAAAAAAAAAAAAAAAAAAAAAAAAAAAAAAAAAAAAAAAAAAAAAAAAAAAAAAAAAAAAAAAAAAAAAAAAAAAAAAAAAAAAAAAAAAAAAAAAAAAAAAAAAAAAAAAAAAAAAAAAAAAAAAAAAAAAAAAAAAAAAAAAAAAAAAAAAAAAAAAAAAAAAAAAAAAAAAAAAAAAAAAAAAAAAAAAAAAAAAAAAAAAAAAAAAAAAAAAAAAAAAAAAAAAAAAAAAAAAAAAAAAAAAAAAAAAAAAAAAAAAAAAAAAAAAAAAAAAAAAAAAAAAAAAAAAAAAAAAAAAAAAAAAAAAAAAAAAAAAAAAAAAAAAAAAAAAAAAAAAAAAAAAAAAAAAAAAAAAAAAAAAAAAAAAAAAAAAAAAAAAAAAAAAAAAAAAAAAAAAAAAAAAAAAAAAAAAAAAAAAAAAAAAAAAAAAAAAAAAAAAAAAAAAAAAAAAAAAAAAAAAAAAAAAAAAAAAAAAAAAAAAAAAAAAAAAAAAAAAAAAAAAAAAAAAAAAAAAAAAAAAAAAAAAAAAAAAAAAAAAAAAAAAAAAAAAAAAAAAAAAAAAAAAAAAAAAAAAAAAAAAAAAAAAAAAAAAAAAAAAAAAAAAAAAAAAAAAAAAAAAAAAAAAAAAAAAAAAAAAAAAAAAAAAAAAAAAAAAAAAAAAAAAAAAAAAAAAAAAAAAAAAAAAAAAAAAAAAAAAAAAAAAAAAAAAAAAAAAAAAAAAAAAAAAAAAAAAAAAAAAAAAAAAAAAAAAAAAAAAAAAAAAAAAAAAAAAAAAAAAAAAAAAAAAAAAAAAAAAAAAAAAAAAAAAAAAAAAAAAAAAAAAAAAAAAAAAAAAAAAAAAAAAAAAAAAAAAAAAAAAAAAAAAAAAAAAAAAAAAAAAAAAAAAAAAAAAAAAAAAAAAAAAAAAAAAAAAAAAAAAAAAAAAAAAAAAAAAAAAAAAAAAAAAAAAAAAAAAAAAAAAAAAAAAAAAAAAAAAAAAAAAAAAAAAAAAAAAAAAAAAAAAAAAAAAAAAAAAAAAAAAAAAAAAAAAAAAAAAAAAAAAAAAAAAAAAAAAAAAAAAAAAAAAAAAAAAAAAAAAAAAAAAAAAAAAAAAAAAAAAAAAAAAAAAAAAAAAAAAAAAAAAAAAAAAAAAAAAAAAAAAAAAAAAAAAAAAAAAAAAAAAAAAAAAAAAAAAAAAAAAAAAAAAAAAAAAAAAAAAAAAAAAAAAAAAAAAAAAAAAAAAAAAAAAAAAAAAAAAAAAAAAAAAAAAAAAAAAAAAAAAAAAAAAAAAAAAAAAAAAAAAAAAAAAAAAAAAAAAAAAAAAAAAAAAAAAAAAAAAAAAAAAAAAAAAAAAAAAAAAAAAAAAAAAAAAAAAAAAAAAAAAAAAAAAAAAAAAAAAAAAAAAAAAAAAAAAAAAAAAAAAAAAAAAAAAAAAAAAAAAAAAAAAAAAAAAAAAAAAAAAAAAAAAAAAAAAAAAAAAAAAAAAAAAAAAAAAAAAAAAAAAAAAAAAAAAAAAAAAAAAAAAAAAAAAAAAAAAAAAAAAAAAAAAAAAAAAAAAAAAAAAAAAAAAAAAAAAAAAAAAAAAAAAAAAAAAAAAAAAAAAAAAAAAAAAAAAAAAAAAAAAAAAAAAAAAAAAAAAAAAAAAAAAAAAAAAAAAAAAAAAAAAAAAAAAAAAAAAAAAAAAAAAAAAAAAAAAAAAAAAAAAAAAAAAAAAAAAAAAAAAAAAAAAAAAAAAAAAAAAAAAAAAAAAAAAAAAAAAAAAAAAAAAAAAAAAAAAAAAAAAAAAAAAAAAAAAAAAAAAAAAAAAAAAAAAAAAAAAAAAAAAAAAAAAAAAAAAAAAAAAAAAAAAAAAAAAAAAAAAAAAAAAAAAAAAAAAAAAAAAAAAAAAAAAAAAAAAAAAAAAAAAAAAAAAAAAAAAAAAAAAAAAAAAAAAAAAAAAAAAAAAAAAAAAAAAAAAAAAAAAAAAAAAAAAAAAAAAAAAAAAAAAAAAAAAAAAAAAAAAAAAAAAAAAAAAAAAAAAAAAAAAAAAAAAAAAAAAAAAAAAAAAAAAAAAAAAAAAAAAAAAAAAAAAAAAAAAAAAAAAAAAAAAAAAAAAAAAAAAAAAAAAAAAAAAAAAAAAAAAAAAAAAAAAAAAAAAAAAAAAAAAAAAAAAAAAAAAAAAAAAAAAAAAAAAAAAAAAAAAAAAAAAAAAAAAAAAAAAAAAAAAAAAAAAAAAAAAAAAAAAAAAAAAAAAAAAAAAAAAAAAAAAAAAAAAAAAAAAAAAAAAAAAAAAAAAAAAAAAAAAAAAAAAAAAAAAAAAAAAAAAAAAAAAAAAAAAAAAAAAAAAAAAAAAAAAAAAAAAAAAAAAAAAAAAAAAAAAAAAAAAAAAAAAAAAAAAAAAAAAAAAAAAAAAAAAAAAAAAAAAAAAAAAAAAAAAAAAAAAAAAAAAAAAAAAAAAAAAAAAAAAAAAAAAAAAAAAAAAAAAAAAAAAAAAAAAAAAAAAAAAAAAAAAAAAAAAAAAAAAAAAAAAAAAAAAAAAAAAAAAAAAAAAAAAAAAAAAAAAAAAAAAAAAAAAAAAAAAAAAAAAAAAAAAAAAAAAAAAAAAAAAAAAAAAAAAAAAAAAAAAAAAAAAAAAAAAAAAAAAAAAAAAAAAAAAAAAAAAAAAAAAAAAAAAAAAAAAAAAAAAAAAAAAAAAAAAAAAAAAAAAAAAAAAAAAAAAAAAAAAAAAAAAAAAAAAAAAAAAAAAAAAAAAAAAAAAAAAAAAAAAAAAAAAAAAAAAAAAAAAAAAAAAAAAAAAAAAAAAAAAAAAAAAAAAAAAAAAAAAAAAAAAAAAAAAAAAAAAAAAAAAAAAAAAAAAAAAAAAAAAAAAAAAAAAAAAAAAAAAAAAAAAAAAAAAAAAAAAAAAAAAAAAAAAAAAAAAAAAAAAAAAAAAAAAAAAAAAAAAAAAAAAAAAAAAAAAAAAAAAAAAAAAAAAAAAAAAAAAAAAAAAAAAAAAAAAAAAAAAAAAAAAAAAAAAAAAAAAAAAAAAAAAAAAAAAAAAAAAAAAAAAAAAAAAAAAAAAAAAAAAAAAAAAAAAAAAAAAAAAAAAAAAAAAAAAAAAAAAAAAAAAAAAAAAAAAAAAAAAAAAAAAAAAAAAAAAAAAAAAAAAAAAAAAAAAAAAAAAAAAAAAAAAAAAAAAAAAAAAAAAAAAAAAAAAAAAAAAAAAAAAAAAAAAAAAAAAAAAAAAAAAAAAAAAAAAAAAAAAAAAAAAAAAAAAAAAAAAAAAAAAAAAAAAAAAAAAAAAAAAAAAAAAAAAAAAAAAAAAAAAAAAAAAAAAAAAAAAAAAAAAAAAAAAAAAAAAAAAAAAAAAAAAAAAAAAAAAAAAAAAAAAAAAAAAAAAAAAAAAAAAAAAAAAAAAAAAAAAAAAAAAAAAAAAAAAAAAAAAAAAAAAAAAAAAAAAAAAAAAAAAAAAAAAAAAAAAAAAAAAAAAAAAAAAAAAAAAAAAAAAAAAAAAAAAAAAAAAAAAAAAAAAAAAAAAAAAAAAAAAAAAAAAAAAAAAAAAAAAAAAAAAAAAAAAAAAAAAAAAAAAAAAAAAAAAAAAAAAAAAAAAAAAAAAAAAAAAAAAAAAAAAAAAAAAAAAAAAAAAAAAAAAAAAAAAAAAAAAAAAAAAAAAAAAAAAAAAAAAAAAAAAAAAAAAAAAAAAAAAAAAAAAAAAAAAAAAAAAAAAAAAAAAAAAAAAAAAAAAAAAAAAAAAAAAAAAAAAAAAAAAAAAAAAAAAAAAAAAAAAAAAAAAAAAAAAAAAAAAAAAAAAAAAAAAAAAAAAAAAAAAAAAAAAAAAAAAAAAAAAAAAAAAAAAAAAAAAAAAAAAAAAAAAAAAAAAAAAAAAAAAAAAAAAAAAAAAAAAAAAAAAAAAAAAAAPZYQKo7GEDEpZWcAAlMBjSHQlJyCvfKsqN4P0oVZkwZPykaXHfT0c/2Qlb1xWpVOGEoGBsp1jmJ5fUVO7Vyv9iyt3A=</c2pa:manifest></metadata>
<defs>
<radialGradient id="bg" cx="50%" cy="45%" r="75%"><stop offset="0" stop-color="#2d6a80"/><stop offset="1" stop-color="#173f52"/></radialGradient>
<radialGradient id="face" cx="50%" cy="85%" r="70%"><stop offset="0" stop-color="#ffffff"/><stop offset=".6" stop-color="#f6f3ec"/><stop offset="1" stop-color="#e7e6df"/></radialGradient>
<radialGradient id="knob" cx="40%" cy="35%" r="65%"><stop offset="0" stop-color="#f3c79a"/><stop offset=".45" stop-color="#c47a44"/><stop offset="1" stop-color="#6e3a1c"/></radialGradient>
<linearGradient id="needle" x1="0" x2="1"><stop offset="0" stop-color="#1c3440"/><stop offset=".5" stop-color="#3b5866"/><stop offset="1" stop-color="#16303c"/></linearGradient>
<filter id="wc" x="-10%" y="-10%" width="120%" height="120%">
 <feTurbulence type="fractalNoise" baseFrequency="0.035" numOctaves="3" seed="3" result="n"/>
 <feDisplacementMap in="SourceGraphic" in2="n" scale="14" xChannelSelector="R" yChannelSelector="G" result="d"/>
 <feTurbulence type="fractalNoise" baseFrequency="0.9" numOctaves="2" seed="8" result="g"/>
 <feColorMatrix in="g" type="matrix" values="0 0 0 0 0  0 0 0 0 0  0 0 0 0 0  0 0 0 -0.35 1.05" result="ga"/>
 <feComposite in="d" in2="ga" operator="in" result="t"/>
 <feGaussianBlur in="t" stdDeviation="0.6"/>
</filter>
<filter id="cloud" x="-20%" y="-20%" width="140%" height="140%">
 <feTurbulence type="fractalNoise" baseFrequency="0.02" numOctaves="4" seed="11" result="n"/>
 <feDisplacementMap in="SourceGraphic" in2="n" scale="45" xChannelSelector="R" yChannelSelector="G" result="d"/>
 <feGaussianBlur in="d" stdDeviation="4"/>
</filter>
<filter id="paper"><feTurbulence type="fractalNoise" baseFrequency="0.6" numOctaves="3" seed="2"/>
 <feColorMatrix type="matrix" values="0 0 0 0 1  0 0 0 0 1  0 0 0 0 1  0 0 0 0.09 0"/></filter>
<filter id="soft"><feGaussianBlur stdDeviation="6"/></filter>
<filter id="shadow" x="-50%" y="-50%" width="200%" height="200%"><feDropShadow dx="3" dy="5" stdDeviation="4" flood-color="#0b2430" flood-opacity=".45"/></filter>
<clipPath id="half"><rect x="0" y="0" width="1000" height="470"/></clipPath>
</defs>
<rect width="1000" height="560" fill="url(#bg)"/>
<g filter="url(#wc)" opacity=".9">
<circle cx="688.4" cy="181.2" r="31.0" fill="#3f7690" opacity="0.64"/>
<circle cx="862.3" cy="381.7" r="36.2" fill="#356a84" opacity="0.36"/>
<circle cx="573.3" cy="138.5" r="19.8" fill="#2f6179" opacity="0.37"/>
<circle cx="415.5" cy="82.5" r="30.6" fill="#5a8ea3" opacity="0.68"/>
<circle cx="409.7" cy="120.7" r="37.5" fill="#3f7690" opacity="0.54"/>
<circle cx="838.1" cy="340.0" r="28.8" fill="#5a8ea3" opacity="0.46"/>
<circle cx="201.4" cy="293.7" r="29.6" fill="#356a84" opacity="0.48"/>
<circle cx="447.1" cy="135.1" r="19.2" fill="#356a84" opacity="0.52"/>
<circle cx="459.9" cy="86.6" r="27.3" fill="#2f6179" opacity="0.48"/>
<circle cx="754.8" cy="234.9" r="33.6" fill="#3f7690" opacity="0.55"/>
<circle cx="467.6" cy="79.5" r="32.6" fill="#4b8198" opacity="0.56"/>
<circle cx="862.9" cy="407.6" r="21.3" fill="#4b8198" opacity="0.40"/>
<circle cx="512.2" cy="132.7" r="31.4" fill="#5a8ea3" opacity="0.55"/>
<circle cx="164.8" cy="351.9" r="31.9" fill="#5a8ea3" opacity="0.52"/>
<circle cx="219.2" cy="279.3" r="19.9" fill="#4b8198" opacity="0.52"/>
<circle cx="326.1" cy="179.0" r="32.0" fill="#5a8ea3" opacity="0.70"/>
<circle cx="192.3" cy="296.0" r="25.7" fill="#4b8198" opacity="0.36"/>
<circle cx="543.4" cy="126.8" r="20.3" fill="#3f7690" opacity="0.43"/>
<circle cx="746.0" cy="176.5" r="26.0" fill="#2f6179" opacity="0.38"/>
<circle cx="561.5" cy="104.4" r="35.7" fill="#2f6179" opacity="0.65"/>
<circle cx="740.6" cy="199.5" r="25.2" fill="#2f6179" opacity="0.69"/>
<circle cx="815.6" cy="327.0" r="22.6" fill="#356a84" opacity="0.35"/>
<circle cx="193.1" cy="308.5" r="23.6" fill="#356a84" opacity="0.50"/>
<circle cx="654.7" cy="131.9" r="37.1" fill="#5a8ea3" opacity="0.68"/>
<circle cx="313.5" cy="135.4" r="27.1" fill="#5a8ea3" opacity="0.49"/>
<circle cx="611.2" cy="146.9" r="30.7" fill="#3f7690" opacity="0.42"/>
<circle cx="136.4" cy="477.1" r="20.2" fill="#5a8ea3" opacity="0.37"/>
<circle cx="844.0" cy="493.8" r="20.0" fill="#4b8198" opacity="0.56"/>
<circle cx="844.0" cy="414.2" r="25.5" fill="#4b8198" opacity="0.68"/>
<circle cx="379.5" cy="124.6" r="20.3" fill="#2f6179" opacity="0.70"/>
<circle cx="540.8" cy="105.8" r="19.7" fill="#3f7690" opacity="0.61"/>
<circle cx="240.3" cy="212.0" r="31.8" fill="#5a8ea3" opacity="0.36"/>
<circle cx="132.2" cy="436.4" r="20.9" fill="#5a8ea3" opacity="0.67"/>
<circle cx="234.5" cy="235.3" r="30.9" fill="#3f7690" opacity="0.59"/>
<circle cx="753.3" cy="215.9" r="21.3" fill="#356a84" opacity="0.54"/>
<circle cx="217.4" cy="252.8" r="22.5" fill="#356a84" opacity="0.63"/>
<circle cx="168.7" cy="277.6" r="22.5" fill="#5a8ea3" opacity="0.52"/>
<circle cx="225.5" cy="180.0" r="33.8" fill="#2f6179" opacity="0.44"/>
<circle cx="265.5" cy="149.5" r="26.9" fill="#4b8198" opacity="0.68"/>
<circle cx="650.1" cy="154.6" r="22.5" fill="#356a84" opacity="0.47"/>
<circle cx="522.7" cy="71.6" r="30.2" fill="#3f7690" opacity="0.52"/>
<circle cx="313.8" cy="130.8" r="19.7" fill="#3f7690" opacity="0.67"/>
<circle cx="193.2" cy="239.4" r="27.6" fill="#356a84" opacity="0.50"/>
<circle cx="353.1" cy="162.6" r="36.9" fill="#2f6179" opacity="0.51"/>
<circle cx="256.1" cy="232.4" r="21.2" fill="#356a84" opacity="0.36"/>
<circle cx="392.8" cy="120.8" r="31.1" fill="#5a8ea3" opacity="0.64"/>
<circle cx="122.3" cy="472.0" r="25.0" fill="#5a8ea3" opacity="0.54"/>
<circle cx="887.0" cy="469.8" r="32.5" fill="#3f7690" opacity="0.53"/>
<circle cx="140.8" cy="416.5" r="35.4" fill="#356a84" opacity="0.36"/>
<circle cx="797.4" cy="253.9" r="33.3" fill="#4b8198" opacity="0.44"/>
<circle cx="590.2" cy="138.5" r="36.2" fill="#4b8198" opacity="0.66"/>
<circle cx="302.8" cy="135.9" r="28.3" fill="#5a8ea3" opacity="0.40"/>
<circle cx="834.9" cy="317.1" r="35.5" fill="#356a84" opacity="0.56"/>
<circle cx="228.7" cy="257.3" r="20.8" fill="#5a8ea3" opacity="0.60"/>
<circle cx="434.4" cy="119.9" r="28.4" fill="#5a8ea3" opacity="0.52"/>
<circle cx="190.9" cy="228.3" r="19.1" fill="#356a84" opacity="0.45"/>
<circle cx="213.3" cy="239.3" r="29.2" fill="#3f7690" opacity="0.51"/>
<circle cx="367.2" cy="126.9" r="28.2" fill="#4b8198" opacity="0.51"/>
<circle cx="460.1" cy="106.1" r="36.8" fill="#5a8ea3" opacity="0.66"/>
<circle cx="150.7" cy="427.9" r="29.2" fill="#356a84" opacity="0.64"/>
<circle cx="818.4" cy="342.8" r="26.8" fill="#3f7690" opacity="0.58"/>
<circle cx="581.3" cy="130.8" r="24.1" fill="#3f7690" opacity="0.66"/>
<circle cx="845.7" cy="308.5" r="31.2" fill="#356a84" opacity="0.44"/>
<circle cx="839.3" cy="334.3" r="32.9" fill="#3f7690" opacity="0.49"/>
<circle cx="516.7" cy="71.0" r="34.6" fill="#356a84" opacity="0.60"/>
<circle cx="139.2" cy="488.2" r="26.4" fill="#4b8198" opacity="0.46"/>
<circle cx="276.0" cy="219.2" r="29.1" fill="#2f6179" opacity="0.60"/>
<circle cx="636.6" cy="127.6" r="23.9" fill="#3f7690" opacity="0.39"/>
<circle cx="156.9" cy="401.4" r="35.5" fill="#3f7690" opacity="0.44"/>
<circle cx="884.9" cy="446.8" r="23.4" fill="#356a84" opacity="0.64"/>
<path d="M128.0,470.0 A372,372 0 0 1 872.0,470.0 L830.0,470.0 A330,330 0 0 0 170.0,470.0Z" fill="#3a7089" opacity=".85"/>
</g>
<path d="M138,470 A362,362 0 0 1 862,470" fill="none" stroke="#cfe0e6" stroke-opacity=".35" stroke-width="2" stroke-dasharray="3 11"/>
<g filter="url(#wc)">
<path d="M165.0,472.9 A335,335 0 0 1 230.7,270.7 L295.0,318.3 A255,255 0 0 0 245.0,472.2Z" fill="#ec6e56"/>
<path d="M200.4,454.3 A300,300 0 0 1 248.4,306.6 L280.3,327.3 A262,262 0 0 0 238.4,456.3Z" fill="#f59a82" opacity=".55"/>
<circle cx="196.0" cy="426.1" r="15.6" fill="#f59a82" opacity=".45"/>
<circle cx="219.7" cy="364.5" r="12.1" fill="#f59a82" opacity=".45"/>
<circle cx="226.3" cy="380.3" r="10.2" fill="#f59a82" opacity=".45"/>
<circle cx="223.8" cy="423.2" r="15.2" fill="#f59a82" opacity=".45"/>
<path d="M227.3,275.5 A335,335 0 0 1 399.3,150.5 L423.3,226.8 A255,255 0 0 0 292.4,321.9Z" fill="#f0a070"/>
<path d="M266.9,281.2 A300,300 0 0 1 392.5,189.9 L406.1,225.4 A262,262 0 0 0 296.4,305.1Z" fill="#f6c49a" opacity=".55"/>
<circle cx="366.5" cy="234.3" r="8.7" fill="#f6c49a" opacity=".45"/>
<circle cx="351.5" cy="205.4" r="9.8" fill="#f6c49a" opacity=".45"/>
<circle cx="364.2" cy="229.0" r="8.1" fill="#f6c49a" opacity=".45"/>
<circle cx="276.1" cy="281.1" r="15.3" fill="#f6c49a" opacity=".45"/>
<path d="M393.7,152.3 A335,335 0 0 1 606.3,152.3 L580.9,228.2 A255,255 0 0 0 419.1,228.2Z" fill="#f3d38f"/>
<path d="M422.4,180.2 A300,300 0 0 1 577.6,180.2 L567.8,216.9 A262,262 0 0 0 432.2,216.9Z" fill="#f8e4b4" opacity=".55"/>
<circle cx="483.8" cy="198.1" r="13.7" fill="#f8e4b4" opacity=".45"/>
<circle cx="431.3" cy="154.1" r="10.1" fill="#f8e4b4" opacity=".45"/>
<circle cx="549.9" cy="152.6" r="13.0" fill="#f8e4b4" opacity=".45"/>
<circle cx="495.7" cy="188.7" r="11.6" fill="#f8e4b4" opacity=".45"/>
<path d="M600.7,150.5 A335,335 0 0 1 772.7,275.5 L707.6,321.9 A255,255 0 0 0 576.7,226.8Z" fill="#9fbf96"/>
<path d="M607.5,189.9 A300,300 0 0 1 733.1,281.2 L703.6,305.1 A262,262 0 0 0 593.9,225.4Z" fill="#c3d8b4" opacity=".55"/>
<circle cx="647.5" cy="226.3" r="14.4" fill="#c3d8b4" opacity=".45"/>
<circle cx="602.6" cy="218.1" r="8.1" fill="#c3d8b4" opacity=".45"/>
<circle cx="689.6" cy="207.5" r="12.1" fill="#c3d8b4" opacity=".45"/>
<circle cx="701.4" cy="255.0" r="13.3" fill="#c3d8b4" opacity=".45"/>
<path d="M769.3,270.7 A335,335 0 0 1 835.0,472.9 L755.0,472.2 A255,255 0 0 0 705.0,318.3Z" fill="#2f5f7a"/>
<path d="M751.6,306.6 A300,300 0 0 1 799.6,454.3 L761.6,456.3 A262,262 0 0 0 719.7,327.3Z" fill="#5b89a2" opacity=".55"/>
<circle cx="783.4" cy="354.3" r="12.4" fill="#5b89a2" opacity=".45"/>
<circle cx="783.1" cy="313.8" r="10.5" fill="#5b89a2" opacity=".45"/>
<circle cx="778.3" cy="420.8" r="9.6" fill="#5b89a2" opacity=".45"/>
<circle cx="772.0" cy="321.1" r="9.1" fill="#5b89a2" opacity=".45"/>
</g>
<path d="M245,470 A255,255 0 0 1 755,470Z" fill="url(#face)"/>
<line x1="250.0" y1="470.0" x2="268.0" y2="470.0" stroke="#9fb3bb" stroke-width="2.2" stroke-linecap="round" opacity=".8"/>
<line x1="250.5" y1="454.3" x2="259.5" y2="454.9" stroke="#9fb3bb" stroke-width="1.2" stroke-linecap="round" opacity=".8"/>
<line x1="252.0" y1="438.7" x2="260.9" y2="439.8" stroke="#9fb3bb" stroke-width="1.2" stroke-linecap="round" opacity=".8"/>
<line x1="254.4" y1="423.2" x2="263.3" y2="424.8" stroke="#9fb3bb" stroke-width="1.2" stroke-linecap="round" opacity=".8"/>
<line x1="257.9" y1="407.8" x2="266.6" y2="410.1" stroke="#9fb3bb" stroke-width="1.2" stroke-linecap="round" opacity=".8"/>
<line x1="262.2" y1="392.7" x2="279.4" y2="398.3" stroke="#9fb3bb" stroke-width="2.2" stroke-linecap="round" opacity=".8"/>
<line x1="267.6" y1="378.0" x2="275.9" y2="381.3" stroke="#9fb3bb" stroke-width="1.2" stroke-linecap="round" opacity=".8"/>
<line x1="273.8" y1="363.6" x2="281.9" y2="367.4" stroke="#9fb3bb" stroke-width="1.2" stroke-linecap="round" opacity=".8"/>
<line x1="280.9" y1="349.6" x2="288.8" y2="353.9" stroke="#9fb3bb" stroke-width="1.2" stroke-linecap="round" opacity=".8"/>
<line x1="288.9" y1="336.0" x2="296.5" y2="340.9" stroke="#9fb3bb" stroke-width="1.2" stroke-linecap="round" opacity=".8"/>
<line x1="297.7" y1="323.1" x2="312.3" y2="333.6" stroke="#9fb3bb" stroke-width="2.2" stroke-linecap="round" opacity=".8"/>
<line x1="307.4" y1="310.6" x2="314.3" y2="316.4" stroke="#9fb3bb" stroke-width="1.2" stroke-linecap="round" opacity=".8"/>
<line x1="317.8" y1="298.9" x2="324.3" y2="305.0" stroke="#9fb3bb" stroke-width="1.2" stroke-linecap="round" opacity=".8"/>
<line x1="328.9" y1="287.8" x2="335.0" y2="294.3" stroke="#9fb3bb" stroke-width="1.2" stroke-linecap="round" opacity=".8"/>
<line x1="340.6" y1="277.4" x2="346.4" y2="284.3" stroke="#9fb3bb" stroke-width="1.2" stroke-linecap="round" opacity=".8"/>
<line x1="353.1" y1="267.7" x2="363.6" y2="282.3" stroke="#9fb3bb" stroke-width="2.2" stroke-linecap="round" opacity=".8"/>
<line x1="366.0" y1="258.9" x2="370.9" y2="266.5" stroke="#9fb3bb" stroke-width="1.2" stroke-linecap="round" opacity=".8"/>
<line x1="379.6" y1="250.9" x2="383.9" y2="258.8" stroke="#9fb3bb" stroke-width="1.2" stroke-linecap="round" opacity=".8"/>
<line x1="393.6" y1="243.8" x2="397.4" y2="251.9" stroke="#9fb3bb" stroke-width="1.2" stroke-linecap="round" opacity=".8"/>
<line x1="408.0" y1="237.6" x2="411.3" y2="245.9" stroke="#9fb3bb" stroke-width="1.2" stroke-linecap="round" opacity=".8"/>
<line x1="422.7" y1="232.2" x2="428.3" y2="249.4" stroke="#9fb3bb" stroke-width="2.2" stroke-linecap="round" opacity=".8"/>
<line x1="437.8" y1="227.9" x2="440.1" y2="236.6" stroke="#9fb3bb" stroke-width="1.2" stroke-linecap="round" opacity=".8"/>
<line x1="453.2" y1="224.4" x2="454.8" y2="233.3" stroke="#9fb3bb" stroke-width="1.2" stroke-linecap="round" opacity=".8"/>
<line x1="468.7" y1="222.0" x2="469.8" y2="230.9" stroke="#9fb3bb" stroke-width="1.2" stroke-linecap="round" opacity=".8"/>
<line x1="484.3" y1="220.5" x2="484.9" y2="229.5" stroke="#9fb3bb" stroke-width="1.2" stroke-linecap="round" opacity=".8"/>
<line x1="500.0" y1="220.0" x2="500.0" y2="238.0" stroke="#9fb3bb" stroke-width="2.2" stroke-linecap="round" opacity=".8"/>
<line x1="515.7" y1="220.5" x2="515.1" y2="229.5" stroke="#9fb3bb" stroke-width="1.2" stroke-linecap="round" opacity=".8"/>
<line x1="531.3" y1="222.0" x2="530.2" y2="230.9" stroke="#9fb3bb" stroke-width="1.2" stroke-linecap="round" opacity=".8"/>
<line x1="546.8" y1="224.4" x2="545.2" y2="233.3" stroke="#9fb3bb" stroke-width="1.2" stroke-linecap="round" opacity=".8"/>
<line x1="562.2" y1="227.9" x2="559.9" y2="236.6" stroke="#9fb3bb" stroke-width="1.2" stroke-linecap="round" opacity=".8"/>
<line x1="577.3" y1="232.2" x2="571.7" y2="249.4" stroke="#9fb3bb" stroke-width="2.2" stroke-linecap="round" opacity=".8"/>
<line x1="592.0" y1="237.6" x2="588.7" y2="245.9" stroke="#9fb3bb" stroke-width="1.2" stroke-linecap="round" opacity=".8"/>
<line x1="606.4" y1="243.8" x2="602.6" y2="251.9" stroke="#9fb3bb" stroke-width="1.2" stroke-linecap="round" opacity=".8"/>
<line x1="620.4" y1="250.9" x2="616.1" y2="258.8" stroke="#9fb3bb" stroke-width="1.2" stroke-linecap="round" opacity=".8"/>
<line x1="634.0" y1="258.9" x2="629.1" y2="266.5" stroke="#9fb3bb" stroke-width="1.2" stroke-linecap="round" opacity=".8"/>
<line x1="646.9" y1="267.7" x2="636.4" y2="282.3" stroke="#9fb3bb" stroke-width="2.2" stroke-linecap="round" opacity=".8"/>
<line x1="659.4" y1="277.4" x2="653.6" y2="284.3" stroke="#9fb3bb" stroke-width="1.2" stroke-linecap="round" opacity=".8"/>
<line x1="671.1" y1="287.8" x2="665.0" y2="294.3" stroke="#9fb3bb" stroke-width="1.2" stroke-linecap="round" opacity=".8"/>
<line x1="682.2" y1="298.9" x2="675.7" y2="305.0" stroke="#9fb3bb" stroke-width="1.2" stroke-linecap="round" opacity=".8"/>
<line x1="692.6" y1="310.6" x2="685.7" y2="316.4" stroke="#9fb3bb" stroke-width="1.2" stroke-linecap="round" opacity=".8"/>
<line x1="702.3" y1="323.1" x2="687.7" y2="333.6" stroke="#9fb3bb" stroke-width="2.2" stroke-linecap="round" opacity=".8"/>
<line x1="711.1" y1="336.0" x2="703.5" y2="340.9" stroke="#9fb3bb" stroke-width="1.2" stroke-linecap="round" opacity=".8"/>
<line x1="719.1" y1="349.6" x2="711.2" y2="353.9" stroke="#9fb3bb" stroke-width="1.2" stroke-linecap="round" opacity=".8"/>
<line x1="726.2" y1="363.6" x2="718.1" y2="367.4" stroke="#9fb3bb" stroke-width="1.2" stroke-linecap="round" opacity=".8"/>
<line x1="732.4" y1="378.0" x2="724.1" y2="381.3" stroke="#9fb3bb" stroke-width="1.2" stroke-linecap="round" opacity=".8"/>
<line x1="737.8" y1="392.7" x2="720.6" y2="398.3" stroke="#9fb3bb" stroke-width="2.2" stroke-linecap="round" opacity=".8"/>
<line x1="742.1" y1="407.8" x2="733.4" y2="410.1" stroke="#9fb3bb" stroke-width="1.2" stroke-linecap="round" opacity=".8"/>
<line x1="745.6" y1="423.2" x2="736.7" y2="424.8" stroke="#9fb3bb" stroke-width="1.2" stroke-linecap="round" opacity=".8"/>
<line x1="748.0" y1="438.7" x2="739.1" y2="439.8" stroke="#9fb3bb" stroke-width="1.2" stroke-linecap="round" opacity=".8"/>
<line x1="749.5" y1="454.3" x2="740.5" y2="454.9" stroke="#9fb3bb" stroke-width="1.2" stroke-linecap="round" opacity=".8"/>
<line x1="750.0" y1="470.0" x2="732.0" y2="470.0" stroke="#9fb3bb" stroke-width="2.2" stroke-linecap="round" opacity=".8"/>
<g filter="url(#cloud)">
<circle cx="715" cy="499" r="64" fill="#c9dbe2" opacity="0.26"/>
<circle cx="606" cy="455" r="41" fill="#c9dbe2" opacity="0.38"/>
<circle cx="448" cy="470" r="69" fill="#dfe9ec" opacity="0.30"/>
<circle cx="409" cy="468" r="41" fill="#b4ccd6" opacity="0.25"/>
<circle cx="440" cy="460" r="69" fill="#b4ccd6" opacity="0.30"/>
<circle cx="705" cy="459" r="47" fill="#c9dbe2" opacity="0.32"/>
<circle cx="317" cy="457" r="58" fill="#c9dbe2" opacity="0.35"/>
<circle cx="282" cy="456" r="38" fill="#b4ccd6" opacity="0.37"/>
<circle cx="453" cy="458" r="57" fill="#c9dbe2" opacity="0.37"/>
<circle cx="513" cy="485" r="58" fill="#dfe9ec" opacity="0.41"/>
<circle cx="542" cy="486" r="60" fill="#b4ccd6" opacity="0.28"/>
<circle cx="599" cy="479" r="37" fill="#dfe9ec" opacity="0.43"/>
<circle cx="556" cy="484" r="63" fill="#c9dbe2" opacity="0.43"/>
<circle cx="611" cy="474" r="63" fill="#c9dbe2" opacity="0.42"/>
<circle cx="537" cy="494" r="59" fill="#dfe9ec" opacity="0.38"/>
<circle cx="317" cy="443" r="57" fill="#c9dbe2" opacity="0.33"/>
</g>
<g filter="url(#cloud)">
<circle cx="447" cy="506" r="46" fill="#7fa3b3" opacity="0.67"/>
<circle cx="488" cy="500" r="85" fill="#7fa3b3" opacity="0.76"/>
<circle cx="59" cy="563" r="82" fill="#5d879c" opacity="0.50"/>
<circle cx="40" cy="532" r="81" fill="#3c7189" opacity="0.49"/>
<circle cx="662" cy="555" r="87" fill="#2b6078" opacity="0.59"/>
<circle cx="698" cy="592" r="76" fill="#3c7189" opacity="0.43"/>
<circle cx="119" cy="530" r="82" fill="#1f4e63" opacity="0.65"/>
<circle cx="104" cy="558" r="69" fill="#2b6078" opacity="0.68"/>
<circle cx="690" cy="535" r="71" fill="#5d879c" opacity="0.59"/>
<circle cx="789" cy="619" r="72" fill="#1f4e63" opacity="0.79"/>
<circle cx="971" cy="502" r="68" fill="#7fa3b3" opacity="0.79"/>
<circle cx="445" cy="532" r="55" fill="#3c7189" opacity="0.43"/>
<circle cx="58" cy="590" r="58" fill="#1f4e63" opacity="0.45"/>
<circle cx="846" cy="561" r="89" fill="#1f4e63" opacity="0.49"/>
<circle cx="930" cy="558" r="46" fill="#2b6078" opacity="0.78"/>
<circle cx="696" cy="549" r="81" fill="#5d879c" opacity="0.54"/>
<circle cx="301" cy="601" r="45" fill="#1f4e63" opacity="0.74"/>
<circle cx="90" cy="611" r="81" fill="#1f4e63" opacity="0.50"/>
<circle cx="30" cy="547" r="88" fill="#2b6078" opacity="0.54"/>
<circle cx="422" cy="533" r="47" fill="#2b6078" opacity="0.42"/>
<circle cx="675" cy="576" r="52" fill="#1f4e63" opacity="0.57"/>
<circle cx="301" cy="593" r="84" fill="#5d879c" opacity="0.75"/>
<circle cx="837" cy="576" r="91" fill="#7fa3b3" opacity="0.62"/>
<circle cx="737" cy="506" r="82" fill="#5d879c" opacity="0.65"/>
<circle cx="110" cy="604" r="69" fill="#7fa3b3" opacity="0.45"/>
<circle cx="470" cy="541" r="60" fill="#1f4e63" opacity="0.56"/>
<circle cx="218" cy="558" r="78" fill="#2b6078" opacity="0.47"/>
<circle cx="135" cy="525" r="90" fill="#5d879c" opacity="0.62"/>
<circle cx="449" cy="540" r="83" fill="#5d879c" opacity="0.46"/>
<circle cx="168" cy="511" r="62" fill="#2b6078" opacity="0.53"/>
<circle cx="358" cy="597" r="55" fill="#2b6078" opacity="0.70"/>
<circle cx="406" cy="550" r="71" fill="#5d879c" opacity="0.51"/>
<circle cx="772" cy="560" r="74" fill="#1f4e63" opacity="0.45"/>
<circle cx="504" cy="576" r="88" fill="#3c7189" opacity="0.44"/>
<circle cx="929" cy="546" r="77" fill="#5d879c" opacity="0.78"/>
<circle cx="877" cy="605" r="46" fill="#2b6078" opacity="0.57"/>
<circle cx="785" cy="597" r="93" fill="#5d879c" opacity="0.40"/>
<circle cx="383" cy="611" r="86" fill="#5d879c" opacity="0.79"/>
<circle cx="228" cy="513" r="53" fill="#7fa3b3" opacity="0.79"/>
<circle cx="78" cy="599" r="80" fill="#5d879c" opacity="0.43"/>
<circle cx="799" cy="500" r="51" fill="#7fa3b3" opacity="0.77"/>
<circle cx="657" cy="536" r="51" fill="#1f4e63" opacity="0.61"/>
<circle cx="432" cy="592" r="50" fill="#1f4e63" opacity="0.61"/>
<circle cx="590" cy="547" r="56" fill="#7fa3b3" opacity="0.40"/>
<circle cx="540" cy="620" r="59" fill="#1f4e63" opacity="0.66"/>
<circle cx="914" cy="557" r="57" fill="#3c7189" opacity="0.41"/>
<circle cx="405" cy="578" r="48" fill="#3c7189" opacity="0.60"/>
<circle cx="688" cy="550" r="58" fill="#5d879c" opacity="0.77"/>
<circle cx="205" cy="504" r="62" fill="#5d879c" opacity="0.54"/>
<circle cx="388" cy="501" r="60" fill="#7fa3b3" opacity="0.43"/>
<circle cx="495" cy="524" r="83" fill="#3c7189" opacity="0.49"/>
<circle cx="199" cy="591" r="60" fill="#7fa3b3" opacity="0.60"/>
<circle cx="162" cy="527" r="66" fill="#2b6078" opacity="0.78"/>
<circle cx="118" cy="547" r="56" fill="#7fa3b3" opacity="0.46"/>
<circle cx="16" cy="507" r="65" fill="#1f4e63" opacity="0.69"/>
</g>
<path d="M577.0,258.6 L489.7,466.2 L492.5,490.7 L510.3,473.8Z" fill="url(#needle)" filter="url(#shadow)"/>
<circle cx="500" cy="470" r="30" fill="#1d3a47" filter="url(#shadow)"/>
<circle cx="500" cy="470" r="22" fill="url(#knob)"/>
<ellipse cx="493" cy="462" rx="7" ry="4" fill="#fff" opacity=".45"/>
<rect width="1000" height="560" filter="url(#paper)"/>
</svg>